# xmcd CD database file
# Copyright (C) 1996 Ti Kan
#
# Track frame offsets:
#	150
#	37494
#	68103
# Disc length: 1205 seconds
#
# Revision: 1
# Processed by: cddbd v1.4PL0 Copyright (c) Steve Scherf et al.
# Submitted via: CDCOPY 4.744
#
DISCID=2904b303
DTITLE=Nico vs Trance Groove - Reich der Träume
DYEAR=1900
DGENRE=
TTITLE0=Reich der Träume
TTITLE1=Reich der Träume (remix)
TTITLE2=Reich der Träume (radio edit)
EXTD=
EXTT0=
EXTT1=
EXTT2=
PLAYORDER=
